<svg width="380" height="239" viewBox="0 0 380 239" fill="none" xmlns="http://www.w3.org/2000/svg">
<g clip-path="url(#clip0_1042_25742)">
<rect width="380" height="239" rx="24" fill="#335EF7"/>
<g opacity="0.5">
<path opacity="0.25" d="M430.629 1.68164C426.89 4.93864 422.844 7.91345 418.208 10.465C407.121 16.5557 393.284 16.5557 382.197 23.2108C350.089 42.4706 350.254 77.1453 338.152 108.293C319.126 157.253 286.004 148.247 241.688 152.68C207.422 156.101 168.002 173.15 167.719 213.481C167.542 239.795 197.137 257.221 174.289 276.54C161.455 287.392 138.643 280.655 123.922 285.535C103.575 292.272 92.3337 304.712 83.3809 319.457L430.605 318.751L430.629 1.68164ZM354.465 84.9409C356.011 81.3077 356.954 77.4627 358.499 73.8177C359.915 70.4902 361.472 67.2214 362.817 63.8586C365.494 57.1447 368.313 50.7601 372.76 44.9986C378.611 37.4146 387.375 27.0792 397.991 28.1962C398.557 28.255 399.064 28.9252 399.076 29.4661C399.088 33.6049 395.172 36.4739 392.364 38.9667C387.611 43.1761 382.94 47.6206 378.528 52.1828C373.48 57.4152 369.292 63.012 366.662 69.82C365.459 72.9241 364.515 76.1694 363.111 79.1912C361.696 82.2365 359.585 84.4589 357.202 86.8105C356.589 87.4101 355.798 87.2925 355.279 86.8575C354.631 86.5635 354.1 85.7993 354.465 84.9409ZM276.202 165.59C278.467 162.392 284.034 161.275 287.467 163.062C288.587 163.638 289.555 164.626 290.168 165.79C291.926 167.883 291.513 171.034 289.26 172.668C286.889 174.397 283.044 175.055 280.236 174.185C276.58 173.045 273.607 169.247 276.202 165.59ZM183.006 219.372C179.42 211.964 181.036 203.169 186.014 196.831C189.305 192.634 193.622 188.824 197.538 185.191C201.029 181.957 204.745 178.947 208.755 176.36C216.517 171.351 225.245 167.871 234.387 166.401C243.941 164.861 253.673 165.872 263.251 166.531C264.206 166.601 264.973 166.966 265.551 167.506C268.936 169.329 268.158 173.691 265.574 175.972C262.331 178.83 257.801 178.912 253.873 180.229C249.379 181.734 245.274 184.415 241.535 187.295C233.019 193.856 226.118 202.393 219.065 210.424C213.816 216.397 208.189 224.192 200.463 227.144C193.339 229.848 186.191 225.956 183.006 219.372ZM158.86 256.986C153.104 262.724 143.762 262.724 138.006 256.986C132.25 251.248 132.25 241.935 138.006 236.197C143.762 230.459 153.104 230.459 158.86 236.197C164.617 241.935 164.617 251.248 158.86 256.986ZM309.819 121.462C297.151 134.09 276.615 134.09 263.947 121.462C251.278 108.833 251.278 88.3625 263.947 75.7343C276.615 63.1061 297.151 63.1061 309.819 75.7343C322.488 88.3625 322.488 108.833 309.819 121.462ZM336.1 65.3401C331.488 69.9376 324.021 69.9376 319.421 65.3401C314.809 60.7427 314.809 53.2998 319.421 48.7141C324.033 44.1167 331.5 44.1167 336.1 48.7141C340.7 53.2998 340.7 60.7545 336.1 65.3401Z" fill="white"/>
<path opacity="0.25" d="M123.089 1.32796C124.677 2.91272 124.677 5.47894 123.089 7.0547C121.502 8.63947 118.931 8.63947 117.352 7.0547C115.764 5.46994 115.764 2.90372 117.352 1.32796C118.94 -0.256813 121.502 -0.256813 123.089 1.32796ZM114.158 -38.7864C108.701 -33.3388 108.701 -24.4965 114.158 -19.0489C119.616 -13.6013 128.475 -13.6013 133.933 -19.0489C139.391 -24.4965 139.391 -33.3388 133.933 -38.7864C128.475 -44.2341 119.625 -44.2431 114.158 -38.7864ZM214.863 -79.8643C209.585 -71.1571 205.508 -62.3508 190.659 -58.3169C170.749 -52.9143 150.64 -62.3778 130.767 -61.2162C66.0209 -57.4164 119.31 7.05472 92.5976 37.8766C70.9826 62.8276 35.484 48.3126 20.3553 81.6287C11.0003 102.222 10.1252 124.462 -2.03546 144.452C-13.1677 162.749 -28.2693 179.803 -50.209 182.847V159.687C-49.8932 159.705 -49.5685 159.714 -49.2617 159.714C-42.171 159.741 -35.8742 155.716 -30.705 151.232C-22.4596 144.083 -15.3508 135.448 -9.12617 126.515C-5.98677 122.013 -3.10899 117.565 -1.51222 112.271C-0.790524 109.875 2.12334 97.4854 0.869389 94.0457C-0.375546 90.6421 -4.02014 88.463 -7.59256 89.3004C-14.8727 91.0022 -13.8443 100.502 -16.1628 105.877C-19.8795 114.504 -27.6739 120.978 -36.3884 124.183C-41.0614 125.903 -45.8427 127.2 -50.2 129.325V-79.8643H169.964C161.709 -77.181 153.067 -75.281 144.488 -74.6327C142.278 -74.4707 142.187 -71.4002 143.947 -70.8509C146.13 -69.2932 148.602 -69.2121 151.182 -68.5818C152.986 -68.1406 170.207 -64.791 176.369 -64.4398C184.001 -63.9986 193.23 -65.1692 199.121 -70.4367C201.25 -72.3456 203.18 -74.6688 203.072 -77.6852C203.045 -78.4236 202.9 -79.1529 202.693 -79.8643H214.863ZM10.468 69.86C8.8081 64.6375 3.31415 62.7916 -1.2055 65.7811C-3.15409 67.0687 -4.87715 69.0856 -5.00344 71.4808C-5.12975 71.6969 -5.23801 71.931 -5.31018 72.1922C-6.92498 77.5407 -1.18746 81.2145 3.57577 80.7913C9.06972 80.2961 12.1009 75.0015 10.468 69.86Z" fill="white"/>
</g>
<path fill-rule="evenodd" clip-rule="evenodd" d="M314.896 35.8534C314.541 36.3939 314.362 37.0312 314.383 37.6777L314.381 37.6751C314.381 39.5956 315.597 40.5562 317.163 40.5619C317.744 40.595 318.324 40.4909 318.856 40.2572C319.389 40.0237 319.859 39.6671 320.228 39.2174C320.505 39.6904 320.867 40.1086 321.295 40.451C321.365 40.4886 321.443 40.5048 321.522 40.4971C321.6 40.4894 321.675 40.4582 321.735 40.4078L321.738 40.4108C322.111 40.0855 322.784 39.4972 323.162 39.1842C323.194 39.1527 323.22 39.115 323.239 39.0733C323.257 39.0317 323.267 38.9868 323.267 38.9414C323.268 38.8959 323.26 38.8506 323.243 38.8084C323.227 38.7661 323.201 38.7276 323.17 38.6949C322.73 38.2323 322.482 37.6204 322.474 36.9821V34.1013C322.474 34.0068 322.474 33.9129 322.475 33.8196V33.8195V33.8194V33.8193L322.475 33.8172C322.481 32.7092 322.486 31.6965 321.653 30.922C320.86 30.2903 319.866 29.9643 318.853 30.0031C317.084 30.0031 315.106 30.6563 314.695 32.8296C314.686 32.8735 314.686 32.9188 314.695 32.9626C314.705 33.0064 314.723 33.0476 314.748 33.0841C314.774 33.1205 314.808 33.1514 314.846 33.1744C314.884 33.1974 314.927 33.2118 314.972 33.2176L316.772 33.4098C316.856 33.3961 316.933 33.3558 316.992 33.2949C317.05 33.2339 317.087 33.1554 317.098 33.0715C317.17 32.7367 317.362 32.4399 317.636 32.2359C317.911 32.0319 318.251 31.9349 318.592 31.9629C318.791 31.9533 318.99 31.9921 319.171 32.0758C319.352 32.1596 319.51 32.2855 319.633 32.4437C319.839 32.8567 319.918 33.322 319.861 33.7802V34.0155C319.684 34.0357 319.499 34.0547 319.308 34.0743L319.307 34.0743C318.332 34.1742 317.209 34.2892 316.364 34.6579C315.764 34.8953 315.25 35.3128 314.896 35.8534ZM290.516 35.8564C290.162 36.3964 289.982 37.033 290.001 37.6792V37.6787C290.001 39.5971 291.221 40.5563 292.786 40.5619C293.367 40.5955 293.948 40.4914 294.481 40.2578C295.014 40.0241 295.484 39.6675 295.853 39.2174C296.13 39.6909 296.491 40.1093 296.92 40.451C296.989 40.4893 297.067 40.5061 297.145 40.4986C297.224 40.4912 297.298 40.4599 297.359 40.4093L297.365 40.4124C297.735 40.0865 298.408 39.4998 298.79 39.1858C298.822 39.1539 298.848 39.1158 298.866 39.0739C298.884 39.0319 298.893 38.987 298.893 38.9414C298.894 38.8958 298.885 38.8501 298.868 38.8079C298.851 38.7656 298.826 38.7274 298.793 38.695C298.352 38.2333 298.102 37.6212 298.094 36.9821V34.1014C298.094 34.0039 298.094 33.907 298.095 33.8109C298.101 32.7054 298.107 31.6951 297.276 30.9221C296.482 30.2902 295.488 29.9641 294.474 30.0031C292.705 30.0031 290.732 30.6563 290.316 32.8296C290.307 32.8733 290.308 32.9186 290.317 32.9621C290.326 33.0057 290.344 33.0468 290.37 33.0831C290.396 33.1194 290.429 33.1498 290.467 33.1729C290.505 33.1961 290.547 33.2113 290.591 33.2176L292.399 33.4098C292.482 33.3953 292.558 33.3548 292.615 33.2939C292.673 33.233 292.71 33.1549 292.72 33.0715C292.793 32.7367 292.985 32.4399 293.26 32.2359C293.535 32.032 293.875 31.9351 294.216 31.9629C294.416 31.9535 294.614 31.9921 294.795 32.0758C294.977 32.1596 295.135 32.2857 295.258 32.4437C295.462 32.8574 295.54 33.3223 295.483 33.7802V34.0181C295.301 34.0392 295.11 34.059 294.913 34.0794H294.913C293.942 34.1801 292.826 34.2958 291.985 34.6619C291.384 34.8992 290.872 35.3164 290.516 35.8564ZM336.799 30.0889C334.109 30.0889 332.618 32.3855 332.617 35.3343C332.618 38.2678 334.089 40.6225 336.799 40.6245C339.402 40.6245 341.052 38.329 341.052 35.4367C341.059 32.4432 339.562 30.0889 336.799 30.0889ZM327.805 46.3751C328.229 45.3308 329.17 42.9873 328.726 42.4178C328.289 41.8583 325.861 42.1406 324.711 42.2745L324.652 42.2814C324.309 42.322 324.259 42.0243 324.565 41.8116C326.562 40.4184 329.835 40.821 330.215 41.2897C330.594 41.7583 330.118 45.0248 328.24 46.5778C328.161 46.6503 328.061 46.6934 327.955 46.7006C327.807 46.7017 327.723 46.5773 327.806 46.3731L327.805 46.3751ZM298.6 42.0065C298.273 41.713 298.565 41.312 298.96 41.5438C303.77 44.2757 309.206 45.7088 314.736 45.7027C318.87 45.6839 322.959 44.8526 326.772 43.2557C327.363 43.0095 327.854 43.6467 327.278 44.0707C323.787 46.6294 318.728 47.9918 314.37 47.9918C308.554 48.0236 302.933 45.8906 298.6 42.0065ZM335.356 35.0369V35.0717C335.356 36.244 335.356 38.6689 336.799 38.6689C338.245 38.6689 338.314 36.6749 338.308 35.4585C338.339 34.6108 338.245 33.763 338.03 32.9426C337.971 32.6687 337.816 32.4252 337.593 32.2566C337.37 32.0879 337.093 32.006 336.814 32.0252C335.445 32.0257 335.356 33.8755 335.356 35.0349V35.0369ZM292.722 37.3578C292.722 38.1574 293.137 38.6963 293.851 38.6963C294.121 38.685 294.383 38.6013 294.609 38.4538C294.835 38.3063 295.018 38.1006 295.137 37.8581C295.436 37.2508 295.558 36.5707 295.486 35.8973V35.4988C294.14 35.4963 292.72 35.7817 292.72 37.3553L292.722 37.3578ZM317.095 37.358C317.095 38.1576 317.513 38.6964 318.228 38.6964C318.498 38.6845 318.759 38.6005 318.984 38.4531C319.21 38.3056 319.392 38.1002 319.512 37.8583C319.811 37.251 319.932 36.5709 319.861 35.8975V35.499C318.513 35.4965 317.093 35.7818 317.093 37.3554L317.095 37.358ZM347.643 40.3376C347.702 40.3922 347.779 40.4247 347.859 40.43L349.728 40.434C349.813 40.4344 349.896 40.4046 349.962 40.3497C350.028 40.2948 350.072 40.2183 350.087 40.1339V34.1632V34.1603C350.087 33.2427 350.087 31.97 349.6 31.2102C349.366 30.8497 349.043 30.5564 348.662 30.36C348.28 30.1636 347.854 30.0706 347.426 30.0905C346.144 30.0905 345.411 30.7101 344.893 32.0056H344.864V30.5568C344.843 30.4824 344.801 30.4162 344.741 30.368C344.681 30.3199 344.607 30.2928 344.53 30.2898H342.807C342.719 30.2872 342.634 30.3171 342.567 30.3741C342.501 30.4311 342.458 30.511 342.447 30.5979L342.449 40.0852C342.451 40.1748 342.487 40.2605 342.549 40.3246C342.612 40.3887 342.697 40.4262 342.786 40.43H344.634C344.68 40.4313 344.726 40.4235 344.77 40.4069C344.814 40.3902 344.853 40.3652 344.887 40.3332C344.921 40.3011 344.948 40.2627 344.967 40.2202C344.986 40.1776 344.996 40.1318 344.998 40.0852V34.9807C344.962 34.3665 345.063 33.752 345.295 33.182C345.382 32.9653 345.531 32.7785 345.722 32.644C345.914 32.5096 346.14 32.4328 346.373 32.4237C347.554 32.4237 347.542 33.7109 347.533 34.7249C347.532 34.8119 347.531 34.8968 347.531 34.9787V40.1298C347.544 40.2098 347.583 40.2831 347.643 40.3376ZM310.544 40.4262C310.455 40.4214 310.371 40.3834 310.309 40.3198C310.247 40.2563 310.211 40.1717 310.209 40.0829V35.0548C310.236 34.4614 310.219 33.8669 310.158 33.2761C310.12 33.0232 309.983 32.7952 309.779 32.6423C309.574 32.4894 309.317 32.4241 309.065 32.4601C308.824 32.4671 308.59 32.5443 308.393 32.6824C308.195 32.8206 308.043 33.0135 307.953 33.2375C307.799 33.8301 307.741 34.4437 307.781 35.0548V40.0829C307.78 40.1291 307.77 40.1747 307.752 40.217C307.733 40.2592 307.706 40.2975 307.672 40.3293C307.639 40.3613 307.6 40.386 307.557 40.4026C307.514 40.4193 307.468 40.4274 307.422 40.4262H305.565C305.476 40.4221 305.392 40.3845 305.33 40.3208C305.267 40.2571 305.231 40.1721 305.229 40.0829V35.0548C305.229 34.9486 305.231 34.8374 305.233 34.7233C305.248 33.7 305.268 32.4406 304.08 32.4406C302.795 32.4406 302.797 33.8466 302.799 34.9305L302.799 35.0548V40.084C302.798 40.1301 302.788 40.1753 302.769 40.2175C302.751 40.2596 302.724 40.2976 302.691 40.3293C302.657 40.3612 302.618 40.3861 302.575 40.4026C302.531 40.4192 302.486 40.4274 302.44 40.4262H300.579C300.495 40.4235 300.415 40.3907 300.354 40.3334C300.293 40.2761 300.254 40.1981 300.246 40.1146V30.6303C300.247 30.5842 300.257 30.539 300.276 30.4968C300.294 30.4546 300.321 30.4167 300.354 30.3849C300.388 30.3531 300.427 30.3282 300.47 30.3116C300.513 30.2951 300.559 30.2868 300.605 30.288H302.338C302.424 30.2903 302.505 30.3241 302.567 30.3828C302.63 30.4416 302.669 30.5213 302.676 30.6067V31.8443H302.708C302.863 31.3209 303.188 30.864 303.632 30.546C304.075 30.2279 304.611 30.0667 305.156 30.0878C306.32 30.0878 307.05 30.6484 307.569 31.8443C307.745 31.3927 308.037 30.9954 308.415 30.6925C308.793 30.3896 309.244 30.1918 309.723 30.1189C310.202 30.046 310.691 30.1004 311.142 30.277C311.593 30.4536 311.99 30.7464 312.291 31.1251C312.795 31.8081 312.779 32.757 312.765 33.6539C312.762 33.8038 312.76 33.9522 312.76 34.0977L312.758 40.0829C312.757 40.1291 312.746 40.1747 312.727 40.217C312.709 40.2592 312.682 40.297 312.649 40.3289C312.615 40.3607 312.576 40.386 312.533 40.4026C312.49 40.4193 312.444 40.4273 312.398 40.4262H310.544ZM324.388 38.4665V39.8436L324.386 39.8416C324.388 39.9276 324.422 40.0094 324.48 40.0725C324.539 40.1355 324.618 40.1755 324.703 40.1844C324.744 40.1842 324.785 40.1731 324.821 40.1528C325.819 39.6396 326.925 39.3714 328.047 39.3699C329.168 39.3684 330.275 39.6338 331.274 40.1443C331.324 40.1646 331.379 40.1723 331.433 40.1664C331.487 40.1604 331.538 40.141 331.583 40.1102C331.627 40.0793 331.664 40.038 331.688 39.9897C331.713 39.9414 331.725 39.8874 331.724 39.8331V38.3848C331.72 38.276 331.688 38.1698 331.63 38.0776C331.573 37.9853 331.492 37.9101 331.396 37.8588C330.321 37.3042 329.118 37.0473 327.91 37.115L331.081 32.6223C331.376 32.2179 331.543 31.9654 331.543 31.7706V30.6078C331.544 30.5615 331.535 30.516 331.517 30.4733C331.499 30.4306 331.473 30.3916 331.44 30.3594C331.407 30.3272 331.367 30.302 331.324 30.2856C331.281 30.2692 331.235 30.2619 331.188 30.264H325.08C325.035 30.2624 324.989 30.2704 324.947 30.2871C324.904 30.3038 324.866 30.3291 324.833 30.3614C324.801 30.3936 324.776 30.4319 324.759 30.4743C324.742 30.5167 324.734 30.5622 324.736 30.6078V31.9653C324.735 32.0114 324.743 32.0568 324.761 32.0994C324.778 32.1419 324.805 32.1803 324.838 32.2123C324.871 32.2442 324.91 32.2695 324.953 32.2855C324.996 32.3016 325.042 32.3086 325.088 32.3061H328.281L324.612 37.5356C324.446 37.8167 324.368 38.1407 324.388 38.4665Z" fill="white"/>
<path opacity="0.4" d="M330.459 209C340.414 209 348.484 200.929 348.484 190.974C348.484 181.018 340.414 172.948 330.459 172.948C320.503 172.948 312.433 181.018 312.433 190.974C312.433 200.929 320.503 209 330.459 209Z" fill="white"/>
<path opacity="0.859468" d="M308.026 209C317.982 209 326.052 200.929 326.052 190.974C326.052 181.018 317.982 172.948 308.026 172.948C298.071 172.948 290 181.018 290 190.974C290 200.929 298.071 209 308.026 209Z" fill="white"/>
<path d="M30.96 47L33.136 35.8H34.752L37.48 42.976L40.208 35.8H41.824L44 47H42.008L40.664 40.072L38.144 46.744H36.808L34.288 40.072L32.952 47H30.96ZM48.7894 47.208C48.0534 47.208 47.3814 47.0187 46.7734 46.64C46.1707 46.2613 45.688 45.7547 45.3254 45.12C44.968 44.48 44.7894 43.7733 44.7894 43C44.7894 42.4133 44.8934 41.8667 45.1014 41.36C45.3094 40.848 45.5947 40.4 45.9574 40.016C46.3254 39.6267 46.752 39.3227 47.2374 39.104C47.7227 38.8853 48.24 38.776 48.7894 38.776C49.5254 38.776 50.1947 38.9653 50.7974 39.344C51.4054 39.7227 51.888 40.232 52.2454 40.872C52.608 41.512 52.7894 42.2213 52.7894 43C52.7894 43.5813 52.6854 44.1253 52.4774 44.632C52.2694 45.1387 51.9814 45.5867 51.6134 45.976C51.2507 46.36 50.8267 46.6613 50.3414 46.88C49.8614 47.0987 49.344 47.208 48.7894 47.208ZM48.7894 45.256C49.1787 45.256 49.528 45.152 49.8374 44.944C50.1467 44.736 50.3894 44.4613 50.5654 44.12C50.7467 43.7787 50.8374 43.4053 50.8374 43C50.8374 42.584 50.744 42.2053 50.5574 41.864C50.376 41.5173 50.128 41.2427 49.8134 41.04C49.504 40.832 49.1627 40.728 48.7894 40.728C48.4054 40.728 48.0587 40.832 47.7494 41.04C47.44 41.248 47.1947 41.5253 47.0134 41.872C46.832 42.2187 46.7414 42.5947 46.7414 43C46.7414 43.4213 46.8347 43.8027 47.0214 44.144C47.208 44.4853 47.456 44.7573 47.7654 44.96C48.08 45.1573 48.4214 45.256 48.7894 45.256ZM59.2262 44.592L60.9862 45.544C60.6182 46.0453 60.1569 46.448 59.6023 46.752C59.0476 47.056 58.4422 47.208 57.7862 47.208C57.0502 47.208 56.3782 47.0187 55.7702 46.64C55.1676 46.2613 54.6849 45.7547 54.3222 45.12C53.9649 44.48 53.7862 43.7733 53.7862 43C53.7862 42.4133 53.8902 41.8667 54.0982 41.36C54.3062 40.848 54.5916 40.4 54.9542 40.016C55.3222 39.6267 55.7489 39.3227 56.2342 39.104C56.7196 38.8853 57.2369 38.776 57.7862 38.776C58.4422 38.776 59.0476 38.928 59.6023 39.232C60.1569 39.536 60.6182 39.944 60.9862 40.456L59.2262 41.4C59.0396 41.1867 58.8182 41.0213 58.5622 40.904C58.3116 40.7867 58.0529 40.728 57.7862 40.728C57.4022 40.728 57.0556 40.8347 56.7462 41.048C56.4369 41.256 56.1916 41.5333 56.0102 41.88C55.8289 42.2213 55.7382 42.5947 55.7382 43C55.7382 43.4 55.8289 43.7733 56.0102 44.12C56.1916 44.4613 56.4369 44.736 56.7462 44.944C57.0556 45.152 57.4022 45.256 57.7862 45.256C58.0636 45.256 58.3276 45.1973 58.5782 45.08C58.8289 44.9573 59.0449 44.7947 59.2262 44.592ZM68.438 39H70.39V47H68.43L68.35 46.008C68.126 46.3653 67.8327 46.656 67.47 46.88C67.1127 47.0987 66.6913 47.208 66.206 47.208C65.614 47.208 65.0593 47.096 64.542 46.872C64.0247 46.648 63.5687 46.3387 63.174 45.944C62.7793 45.5493 62.4727 45.0933 62.254 44.576C62.0353 44.0587 61.926 43.504 61.926 42.912C61.926 42.3413 62.03 41.8053 62.238 41.304C62.446 40.8027 62.7393 40.3627 63.118 39.984C63.4967 39.6053 63.934 39.3093 64.43 39.096C64.926 38.8827 65.4593 38.776 66.03 38.776C66.5633 38.776 67.038 38.8933 67.454 39.128C67.8753 39.3627 68.2327 39.6613 68.526 40.024L68.438 39ZM66.262 45.328C66.6887 45.328 67.0593 45.2187 67.374 45C67.6887 44.7813 67.926 44.4907 68.086 44.128C68.2513 43.76 68.318 43.3547 68.286 42.912C68.2487 42.496 68.126 42.12 67.918 41.784C67.71 41.4427 67.4433 41.1707 67.118 40.968C66.7927 40.7653 66.4273 40.664 66.022 40.664C65.6007 40.664 65.222 40.7733 64.886 40.992C64.5553 41.2107 64.2993 41.504 64.118 41.872C63.9367 42.2347 63.8647 42.64 63.902 43.088C63.9447 43.4987 64.078 43.8747 64.302 44.216C64.526 44.552 64.8087 44.8213 65.15 45.024C65.4967 45.2267 65.8673 45.328 66.262 45.328ZM77.374 40.984C77.23 40.888 77.0727 40.8107 76.902 40.752C76.7367 40.6933 76.5527 40.664 76.35 40.664C75.9607 40.664 75.6247 40.7653 75.342 40.968C75.0647 41.1707 74.8513 41.4427 74.702 41.784C74.5527 42.12 74.478 42.4933 74.478 42.904V47H72.51V39H74.462V39.944C74.7287 39.592 75.046 39.312 75.414 39.104C75.7873 38.896 76.2087 38.792 76.678 38.792C76.8593 38.792 77.0327 38.7973 77.198 38.808C77.3687 38.8187 77.5313 38.848 77.686 38.896L77.374 40.984ZM84.6174 35H86.5694V47H84.6174V46C84.3614 46.3573 84.0387 46.648 83.6494 46.872C83.26 47.096 82.8094 47.208 82.2974 47.208C81.716 47.208 81.172 47.0987 80.6654 46.88C80.1587 46.6613 79.7107 46.36 79.3214 45.976C78.9374 45.5867 78.636 45.1387 78.4174 44.632C78.1987 44.1253 78.0894 43.5813 78.0894 43C78.0894 42.4187 78.1987 41.8747 78.4174 41.368C78.636 40.8613 78.9374 40.416 79.3214 40.032C79.7107 39.6427 80.1587 39.3387 80.6654 39.12C81.172 38.9013 81.716 38.792 82.2974 38.792C82.8094 38.792 83.26 38.904 83.6494 39.128C84.0387 39.3467 84.3614 39.6373 84.6174 40V35ZM82.3214 45.328C82.7374 45.328 83.1054 45.224 83.4254 45.016C83.7454 44.808 83.996 44.528 84.1774 44.176C84.3587 43.8187 84.4494 43.4267 84.4494 43C84.4494 42.568 84.3587 42.176 84.1774 41.824C83.996 41.4667 83.7427 41.184 83.4174 40.976C83.0974 40.768 82.732 40.664 82.3214 40.664C81.9107 40.664 81.5374 40.7707 81.2014 40.984C80.8654 41.192 80.596 41.472 80.3934 41.824C80.1907 42.176 80.0894 42.568 80.0894 43C80.0894 43.432 80.1907 43.824 80.3934 44.176C80.596 44.528 80.8654 44.808 81.2014 45.016C81.5427 45.224 81.916 45.328 82.3214 45.328Z" fill="white"/>
<path d="M35.928 119.608C34.808 119.608 33.856 119.224 33.072 118.456C32.304 117.672 31.92 116.72 31.92 115.6C31.92 114.48 32.304 113.536 33.072 112.768C33.856 111.984 34.808 111.592 35.928 111.592C37.048 111.592 38 111.984 38.784 112.768C39.568 113.536 39.96 114.48 39.96 115.6C39.96 116.72 39.568 117.672 38.784 118.456C38 119.224 37.048 119.608 35.928 119.608ZM47.7874 119.608C46.6674 119.608 45.7154 119.224 44.9314 118.456C44.1634 117.672 43.7794 116.72 43.7794 115.6C43.7794 114.48 44.1634 113.536 44.9314 112.768C45.7154 111.984 46.6674 111.592 47.7874 111.592C48.9074 111.592 49.8594 111.984 50.6434 112.768C51.4274 113.536 51.8194 114.48 51.8194 115.6C51.8194 116.72 51.4274 117.672 50.6434 118.456C49.8594 119.224 48.9074 119.608 47.7874 119.608ZM59.6468 119.608C58.5268 119.608 57.5748 119.224 56.7908 118.456C56.0228 117.672 55.6388 116.72 55.6388 115.6C55.6388 114.48 56.0228 113.536 56.7908 112.768C57.5748 111.984 58.5268 111.592 59.6468 111.592C60.7668 111.592 61.7188 111.984 62.5028 112.768C63.2868 113.536 63.6788 114.48 63.6788 115.6C63.6788 116.72 63.2868 117.672 62.5028 118.456C61.7188 119.224 60.7668 119.608 59.6468 119.608ZM71.5061 119.608C70.3861 119.608 69.4341 119.224 68.6501 118.456C67.8821 117.672 67.4981 116.72 67.4981 115.6C67.4981 114.48 67.8821 113.536 68.6501 112.768C69.4341 111.984 70.3861 111.592 71.5061 111.592C72.6261 111.592 73.5781 111.984 74.3621 112.768C75.1461 113.536 75.5381 114.48 75.5381 115.6C75.5381 116.72 75.1461 117.672 74.3621 118.456C73.5781 119.224 72.6261 119.608 71.5061 119.608ZM94.8968 119.608C93.7768 119.608 92.8248 119.224 92.0408 118.456C91.2728 117.672 90.8888 116.72 90.8888 115.6C90.8888 114.48 91.2728 113.536 92.0408 112.768C92.8248 111.984 93.7768 111.592 94.8968 111.592C96.0168 111.592 96.9688 111.984 97.7528 112.768C98.5368 113.536 98.9288 114.48 98.9288 115.6C98.9288 116.72 98.5368 117.672 97.7528 118.456C96.9688 119.224 96.0168 119.608 94.8968 119.608ZM106.756 119.608C105.636 119.608 104.684 119.224 103.9 118.456C103.132 117.672 102.748 116.72 102.748 115.6C102.748 114.48 103.132 113.536 103.9 112.768C104.684 111.984 105.636 111.592 106.756 111.592C107.876 111.592 108.828 111.984 109.612 112.768C110.396 113.536 110.788 114.48 110.788 115.6C110.788 116.72 110.396 117.672 109.612 118.456C108.828 119.224 107.876 119.608 106.756 119.608ZM118.616 119.608C117.496 119.608 116.544 119.224 115.76 118.456C114.992 117.672 114.608 116.72 114.608 115.6C114.608 114.48 114.992 113.536 115.76 112.768C116.544 111.984 117.496 111.592 118.616 111.592C119.736 111.592 120.688 111.984 121.472 112.768C122.256 113.536 122.648 114.48 122.648 115.6C122.648 116.72 122.256 117.672 121.472 118.456C120.688 119.224 119.736 119.608 118.616 119.608ZM130.475 119.608C129.355 119.608 128.403 119.224 127.619 118.456C126.851 117.672 126.467 116.72 126.467 115.6C126.467 114.48 126.851 113.536 127.619 112.768C128.403 111.984 129.355 111.592 130.475 111.592C131.595 111.592 132.547 111.984 133.331 112.768C134.115 113.536 134.507 114.48 134.507 115.6C134.507 116.72 134.115 117.672 133.331 118.456C132.547 119.224 131.595 119.608 130.475 119.608ZM153.866 119.608C152.746 119.608 151.794 119.224 151.01 118.456C150.242 117.672 149.858 116.72 149.858 115.6C149.858 114.48 150.242 113.536 151.01 112.768C151.794 111.984 152.746 111.592 153.866 111.592C154.986 111.592 155.938 111.984 156.722 112.768C157.506 113.536 157.898 114.48 157.898 115.6C157.898 116.72 157.506 117.672 156.722 118.456C155.938 119.224 154.986 119.608 153.866 119.608ZM165.725 119.608C164.605 119.608 163.653 119.224 162.869 118.456C162.101 117.672 161.717 116.72 161.717 115.6C161.717 114.48 162.101 113.536 162.869 112.768C163.653 111.984 164.605 111.592 165.725 111.592C166.845 111.592 167.797 111.984 168.581 112.768C169.365 113.536 169.757 114.48 169.757 115.6C169.757 116.72 169.365 117.672 168.581 118.456C167.797 119.224 166.845 119.608 165.725 119.608ZM177.584 119.608C176.464 119.608 175.512 119.224 174.728 118.456C173.96 117.672 173.576 116.72 173.576 115.6C173.576 114.48 173.96 113.536 174.728 112.768C175.512 111.984 176.464 111.592 177.584 111.592C178.704 111.592 179.656 111.984 180.44 112.768C181.224 113.536 181.616 114.48 181.616 115.6C181.616 116.72 181.224 117.672 180.44 118.456C179.656 119.224 178.704 119.608 177.584 119.608ZM189.444 119.608C188.324 119.608 187.372 119.224 186.588 118.456C185.82 117.672 185.436 116.72 185.436 115.6C185.436 114.48 185.82 113.536 186.588 112.768C187.372 111.984 188.324 111.592 189.444 111.592C190.564 111.592 191.516 111.984 192.3 112.768C193.084 113.536 193.476 114.48 193.476 115.6C193.476 116.72 193.084 117.672 192.3 118.456C191.516 119.224 190.564 119.608 189.444 119.608ZM212.834 119.608C211.714 119.608 210.762 119.224 209.978 118.456C209.21 117.672 208.826 116.72 208.826 115.6C208.826 114.48 209.21 113.536 209.978 112.768C210.762 111.984 211.714 111.592 212.834 111.592C213.954 111.592 214.906 111.984 215.69 112.768C216.474 113.536 216.866 114.48 216.866 115.6C216.866 116.72 216.474 117.672 215.69 118.456C214.906 119.224 213.954 119.608 212.834 119.608ZM224.694 119.608C223.574 119.608 222.622 119.224 221.838 118.456C221.07 117.672 220.686 116.72 220.686 115.6C220.686 114.48 221.07 113.536 221.838 112.768C222.622 111.984 223.574 111.592 224.694 111.592C225.814 111.592 226.766 111.984 227.55 112.768C228.334 113.536 228.726 114.48 228.726 115.6C228.726 116.72 228.334 117.672 227.55 118.456C226.766 119.224 225.814 119.608 224.694 119.608ZM236.553 119.608C235.433 119.608 234.481 119.224 233.697 118.456C232.929 117.672 232.545 116.72 232.545 115.6C232.545 114.48 232.929 113.536 233.697 112.768C234.481 111.984 235.433 111.592 236.553 111.592C237.673 111.592 238.625 111.984 239.409 112.768C240.193 113.536 240.585 114.48 240.585 115.6C240.585 116.72 240.193 117.672 239.409 118.456C238.625 119.224 237.673 119.608 236.553 119.608ZM248.412 119.608C247.292 119.608 246.34 119.224 245.556 118.456C244.788 117.672 244.404 116.72 244.404 115.6C244.404 114.48 244.788 113.536 245.556 112.768C246.34 111.984 247.292 111.592 248.412 111.592C249.532 111.592 250.484 111.984 251.268 112.768C252.052 113.536 252.444 114.48 252.444 115.6C252.444 116.72 252.052 117.672 251.268 118.456C250.484 119.224 249.532 119.608 248.412 119.608Z" fill="white"/>
<path d="M33.74 184.13C33.2667 184.13 32.8217 184.037 32.405 183.85C31.9883 183.66 31.6217 183.4 31.305 183.07C30.9917 182.737 30.745 182.35 30.565 181.91C30.3883 181.47 30.3 181 30.3 180.5C30.3 180 30.3883 179.53 30.565 179.09C30.745 178.65 30.9917 178.265 31.305 177.935C31.6217 177.602 31.9883 177.342 32.405 177.155C32.8217 176.965 33.2667 176.87 33.74 176.87C34.3067 176.87 34.8283 177.002 35.305 177.265C35.7817 177.528 36.1767 177.878 36.49 178.315L35.745 178.715C35.5117 178.408 35.2167 178.165 34.86 177.985C34.5067 177.802 34.1333 177.71 33.74 177.71C33.3767 177.71 33.0367 177.783 32.72 177.93C32.4067 178.077 32.1317 178.278 31.895 178.535C31.6583 178.792 31.4733 179.088 31.34 179.425C31.2067 179.762 31.14 180.12 31.14 180.5C31.14 180.883 31.2067 181.243 31.34 181.58C31.4767 181.917 31.6633 182.213 31.9 182.47C32.14 182.727 32.4167 182.928 32.73 183.075C33.0467 183.218 33.3833 183.29 33.74 183.29C34.1467 183.29 34.5233 183.198 34.87 183.015C35.22 182.828 35.5117 182.585 35.745 182.285L36.49 182.69C36.1767 183.127 35.7817 183.477 35.305 183.74C34.8283 184 34.3067 184.13 33.74 184.13ZM41.4961 179H42.3361V184H41.4911L41.4611 183.155C41.3044 183.445 41.0878 183.68 40.8111 183.86C40.5378 184.04 40.2128 184.13 39.8361 184.13C39.4661 184.13 39.1211 184.062 38.8011 183.925C38.4811 183.785 38.1978 183.593 37.9511 183.35C37.7078 183.103 37.5178 182.82 37.3811 182.5C37.2444 182.18 37.1761 181.835 37.1761 181.465C37.1761 181.108 37.2428 180.772 37.3761 180.455C37.5094 180.138 37.6944 179.862 37.9311 179.625C38.1711 179.385 38.4478 179.198 38.7611 179.065C39.0744 178.928 39.4094 178.86 39.7661 178.86C40.1628 178.86 40.5094 178.953 40.8061 179.14C41.1061 179.323 41.3461 179.562 41.5261 179.855L41.4961 179ZM39.8561 183.315C40.1894 183.315 40.4761 183.232 40.7161 183.065C40.9561 182.898 41.1378 182.675 41.2611 182.395C41.3878 182.115 41.4444 181.805 41.4311 181.465C41.4178 181.132 41.3394 180.83 41.1961 180.56C41.0528 180.29 40.8594 180.077 40.6161 179.92C40.3728 179.76 40.0894 179.68 39.7661 179.68C39.4361 179.68 39.1361 179.763 38.8661 179.93C38.5961 180.097 38.3844 180.32 38.2311 180.6C38.0811 180.88 38.0128 181.192 38.0261 181.535C38.0428 181.865 38.1361 182.165 38.3061 182.435C38.4761 182.705 38.6961 182.92 38.9661 183.08C39.2394 183.237 39.5361 183.315 39.8561 183.315ZM46.5944 179.83C46.511 179.783 46.421 179.747 46.3244 179.72C46.2277 179.693 46.1227 179.68 46.0094 179.68C45.7327 179.68 45.486 179.755 45.2694 179.905C45.056 180.055 44.8877 180.258 44.7644 180.515C44.641 180.772 44.5794 181.055 44.5794 181.365V184H43.7344V179H44.5744V179.77C44.7544 179.49 44.9777 179.27 45.2444 179.11C45.511 178.947 45.806 178.865 46.1294 178.865C46.2394 178.865 46.3444 178.87 46.4444 178.88C46.5444 178.89 46.6394 178.91 46.7294 178.94L46.5944 179.83ZM51.348 176.5H52.188V184H51.348V183.15C51.178 183.443 50.9497 183.68 50.663 183.86C50.3764 184.04 50.0397 184.13 49.653 184.13C49.2897 184.13 48.9497 184.062 48.633 183.925C48.3164 183.788 48.0364 183.6 47.793 183.36C47.553 183.117 47.3647 182.837 47.228 182.52C47.0914 182.203 47.023 181.863 47.023 181.5C47.023 181.137 47.0914 180.797 47.228 180.48C47.3647 180.16 47.553 179.88 47.793 179.64C48.0364 179.397 48.3164 179.207 48.633 179.07C48.9497 178.933 49.2897 178.865 49.653 178.865C50.0397 178.865 50.3764 178.955 50.663 179.135C50.9497 179.315 51.178 179.552 51.348 179.845V176.5ZM49.663 183.315C49.993 183.315 50.278 183.235 50.518 183.075C50.7614 182.912 50.948 182.692 51.078 182.415C51.2114 182.138 51.278 181.833 51.278 181.5C51.278 181.16 51.2114 180.853 51.078 180.58C50.9447 180.303 50.7564 180.085 50.513 179.925C50.273 179.762 49.9897 179.68 49.663 179.68C49.333 179.68 49.033 179.762 48.763 179.925C48.4964 180.088 48.283 180.308 48.123 180.585C47.963 180.858 47.883 181.163 47.883 181.5C47.883 181.837 47.9647 182.143 48.128 182.42C48.2914 182.693 48.508 182.912 48.778 183.075C49.048 183.235 49.343 183.315 49.663 183.315ZM60.5339 177H61.3739V184H60.5339V180.67H57.0689V184H56.2289V177H57.0689V179.83H60.5339V177ZM64.8594 184.13C64.3994 184.13 63.9794 184.012 63.5994 183.775C63.2227 183.538 62.921 183.222 62.6944 182.825C62.471 182.425 62.3594 181.983 62.3594 181.5C62.3594 181.133 62.4244 180.792 62.5544 180.475C62.6844 180.155 62.8627 179.875 63.0894 179.635C63.3194 179.392 63.586 179.202 63.8894 179.065C64.1927 178.928 64.516 178.86 64.8594 178.86C65.3194 178.86 65.7377 178.978 66.1144 179.215C66.4944 179.452 66.796 179.77 67.0194 180.17C67.246 180.57 67.3594 181.013 67.3594 181.5C67.3594 181.863 67.2944 182.203 67.1644 182.52C67.0344 182.837 66.8544 183.117 66.6244 183.36C66.3977 183.6 66.1327 183.788 65.8294 183.925C65.5294 184.062 65.206 184.13 64.8594 184.13ZM64.8594 183.29C65.1727 183.29 65.4544 183.208 65.7044 183.045C65.9577 182.878 66.156 182.66 66.2994 182.39C66.446 182.117 66.5194 181.82 66.5194 181.5C66.5194 181.173 66.4444 180.873 66.2944 180.6C66.1477 180.327 65.9494 180.108 65.6994 179.945C65.4494 179.782 65.1694 179.7 64.8594 179.7C64.546 179.7 64.2644 179.783 64.0144 179.95C63.7644 180.113 63.566 180.332 63.4194 180.605C63.2727 180.878 63.1994 181.177 63.1994 181.5C63.1994 181.833 63.2744 182.137 63.4244 182.41C63.5744 182.68 63.776 182.895 64.0294 183.055C64.2827 183.212 64.5594 183.29 64.8594 183.29ZM68.4522 184V176.5H69.2872V184H68.4522ZM74.7992 176.5H75.6392V184H74.7992V183.15C74.6292 183.443 74.4009 183.68 74.1142 183.86C73.8276 184.04 73.4909 184.13 73.1042 184.13C72.7409 184.13 72.4009 184.062 72.0842 183.925C71.7676 183.788 71.4876 183.6 71.2442 183.36C71.0042 183.117 70.8159 182.837 70.6792 182.52C70.5426 182.203 70.4742 181.863 70.4742 181.5C70.4742 181.137 70.5426 180.797 70.6792 180.48C70.8159 180.16 71.0042 179.88 71.2442 179.64C71.4876 179.397 71.7676 179.207 72.0842 179.07C72.4009 178.933 72.7409 178.865 73.1042 178.865C73.4909 178.865 73.8276 178.955 74.1142 179.135C74.4009 179.315 74.6292 179.552 74.7992 179.845V176.5ZM73.1142 183.315C73.4442 183.315 73.7292 183.235 73.9692 183.075C74.2126 182.912 74.3992 182.692 74.5292 182.415C74.6626 182.138 74.7292 181.833 74.7292 181.5C74.7292 181.16 74.6626 180.853 74.5292 180.58C74.3959 180.303 74.2076 180.085 73.9642 179.925C73.7242 179.762 73.4409 179.68 73.1142 179.68C72.7842 179.68 72.4842 179.762 72.2142 179.925C71.9476 180.088 71.7342 180.308 71.5742 180.585C71.4142 180.858 71.3342 181.163 71.3342 181.5C71.3342 181.837 71.4159 182.143 71.5792 182.42C71.7426 182.693 71.9592 182.912 72.2292 183.075C72.4992 183.235 72.7942 183.315 73.1142 183.315ZM79.2777 184.13C78.8177 184.13 78.3977 184.012 78.0177 183.775C77.6411 183.538 77.3394 183.222 77.1127 182.825C76.8894 182.425 76.7777 181.983 76.7777 181.5C76.7777 181.133 76.8427 180.792 76.9727 180.475C77.1027 180.155 77.2811 179.875 77.5077 179.635C77.7377 179.392 78.0044 179.202 78.3077 179.065C78.6111 178.928 78.9344 178.86 79.2777 178.86C79.6544 178.86 79.9994 178.937 80.3127 179.09C80.6294 179.24 80.8994 179.45 81.1227 179.72C81.3494 179.99 81.5177 180.303 81.6277 180.66C81.7411 181.017 81.7827 181.398 81.7527 181.805H77.6727C77.7127 182.088 77.8061 182.342 77.9527 182.565C78.0994 182.785 78.2861 182.96 78.5127 183.09C78.7427 183.22 78.9977 183.287 79.2777 183.29C79.5777 183.29 79.8494 183.213 80.0927 183.06C80.3361 182.903 80.5327 182.69 80.6827 182.42L81.5377 182.62C81.3377 183.063 81.0361 183.427 80.6327 183.71C80.2294 183.99 79.7777 184.13 79.2777 184.13ZM77.6477 181.145H80.9077C80.8811 180.865 80.7911 180.61 80.6377 180.38C80.4844 180.147 80.2894 179.96 80.0527 179.82C79.8161 179.68 79.5577 179.61 79.2777 179.61C78.9977 179.61 78.7411 179.678 78.5077 179.815C78.2744 179.952 78.0811 180.137 77.9277 180.37C77.7777 180.6 77.6844 180.858 77.6477 181.145ZM85.6651 179.83C85.5817 179.783 85.4917 179.747 85.3951 179.72C85.2984 179.693 85.1934 179.68 85.0801 179.68C84.8034 179.68 84.5567 179.755 84.3401 179.905C84.1267 180.055 83.9584 180.258 83.8351 180.515C83.7117 180.772 83.6501 181.055 83.6501 181.365V184H82.8051V179H83.6451V179.77C83.8251 179.49 84.0484 179.27 84.3151 179.11C84.5817 178.947 84.8767 178.865 85.2001 178.865C85.3101 178.865 85.4151 178.87 85.5151 178.88C85.6151 178.89 85.7101 178.91 85.8001 178.94L85.6651 179.83ZM93.8377 181.34V184H92.9977V181.36C92.9977 181.05 92.9327 180.768 92.8027 180.515C92.6727 180.258 92.496 180.055 92.2727 179.905C92.0493 179.752 91.7977 179.675 91.5177 179.675C91.241 179.675 90.9943 179.752 90.7777 179.905C90.5643 180.055 90.396 180.258 90.2727 180.515C90.1493 180.768 90.0877 181.05 90.0877 181.36V184H89.2477V179H90.0877V179.77C90.2677 179.487 90.4893 179.265 90.7527 179.105C91.0193 178.942 91.316 178.86 91.6427 178.86C92.076 178.86 92.456 178.973 92.7827 179.2C93.1127 179.427 93.3693 179.728 93.5527 180.105C93.7393 180.478 93.8343 180.89 93.8377 181.34ZM99.0621 179H99.9021V184H99.0571L99.0271 183.155C98.8704 183.445 98.6538 183.68 98.3771 183.86C98.1038 184.04 97.7788 184.13 97.4021 184.13C97.0321 184.13 96.6871 184.062 96.3671 183.925C96.0471 183.785 95.7638 183.593 95.5171 183.35C95.2738 183.103 95.0838 182.82 94.9471 182.5C94.8104 182.18 94.7421 181.835 94.7421 181.465C94.7421 181.108 94.8088 180.772 94.9421 180.455C95.0754 180.138 95.2604 179.862 95.4971 179.625C95.7371 179.385 96.0138 179.198 96.3271 179.065C96.6404 178.928 96.9754 178.86 97.3321 178.86C97.7288 178.86 98.0754 178.953 98.3721 179.14C98.6721 179.323 98.9121 179.562 99.0921 179.855L99.0621 179ZM97.4221 183.315C97.7554 183.315 98.0421 183.232 98.2821 183.065C98.5221 182.898 98.7038 182.675 98.8271 182.395C98.9538 182.115 99.0104 181.805 98.9971 181.465C98.9838 181.132 98.9054 180.83 98.7621 180.56C98.6188 180.29 98.4254 180.077 98.1821 179.92C97.9388 179.76 97.6554 179.68 97.3321 179.68C97.0021 179.68 96.7021 179.763 96.4321 179.93C96.1621 180.097 95.9504 180.32 95.7971 180.6C95.6471 180.88 95.5788 181.192 95.5921 181.535C95.6088 181.865 95.7021 182.165 95.8721 182.435C96.0421 182.705 96.2621 182.92 96.5321 183.08C96.8054 183.237 97.1021 183.315 97.4221 183.315ZM101.155 184V179H101.995V179.725C102.162 179.482 102.342 179.287 102.535 179.14C102.729 178.99 102.97 178.915 103.26 178.915C103.654 178.915 103.995 179.01 104.285 179.2C104.575 179.39 104.81 179.65 104.99 179.98C105.174 179.647 105.412 179.387 105.705 179.2C105.999 179.01 106.339 178.915 106.725 178.915C107.149 178.915 107.517 179.023 107.83 179.24C108.147 179.457 108.392 179.745 108.565 180.105C108.742 180.465 108.83 180.86 108.83 181.29V184H107.99V181.29C107.99 181.007 107.939 180.75 107.835 180.52C107.735 180.287 107.59 180.102 107.4 179.965C107.214 179.825 106.989 179.755 106.725 179.755C106.462 179.755 106.232 179.825 106.035 179.965C105.839 180.102 105.685 180.287 105.575 180.52C105.465 180.75 105.41 181.007 105.41 181.29V184H104.57V181.29C104.57 181.007 104.515 180.75 104.405 180.52C104.295 180.287 104.142 180.102 103.945 179.965C103.749 179.825 103.52 179.755 103.26 179.755C103.014 179.755 102.795 179.828 102.605 179.975C102.415 180.122 102.265 180.317 102.155 180.56C102.049 180.8 101.995 181.062 101.995 181.345V184H101.155ZM112.138 184.13C111.678 184.13 111.258 184.012 110.878 183.775C110.501 183.538 110.2 183.222 109.973 182.825C109.75 182.425 109.638 181.983 109.638 181.5C109.638 181.133 109.703 180.792 109.833 180.475C109.963 180.155 110.141 179.875 110.368 179.635C110.598 179.392 110.865 179.202 111.168 179.065C111.471 178.928 111.795 178.86 112.138 178.86C112.515 178.86 112.86 178.937 113.173 179.09C113.49 179.24 113.76 179.45 113.983 179.72C114.21 179.99 114.378 180.303 114.488 180.66C114.601 181.017 114.643 181.398 114.613 181.805H110.533C110.573 182.088 110.666 182.342 110.813 182.565C110.96 182.785 111.146 182.96 111.373 183.09C111.603 183.22 111.858 183.287 112.138 183.29C112.438 183.29 112.71 183.213 112.953 183.06C113.196 182.903 113.393 182.69 113.543 182.42L114.398 182.62C114.198 183.063 113.896 183.427 113.493 183.71C113.09 183.99 112.638 184.13 112.138 184.13ZM110.508 181.145H113.768C113.741 180.865 113.651 180.61 113.498 180.38C113.345 180.147 113.15 179.96 112.913 179.82C112.676 179.68 112.418 179.61 112.138 179.61C111.858 179.61 111.601 179.678 111.368 179.815C111.135 179.952 110.941 180.137 110.788 180.37C110.638 180.6 110.545 180.858 110.508 181.145Z" fill="white"/>
<path d="M31.575 201.829C31.295 201.829 31.0547 201.731 30.854 201.535C30.658 201.334 30.56 201.087 30.56 200.793C30.56 200.513 30.658 200.273 30.854 200.072C31.0547 199.871 31.295 199.771 31.575 199.771C31.8643 199.771 32.107 199.871 32.303 200.072C32.5037 200.273 32.604 200.513 32.604 200.793C32.604 201.087 32.5037 201.334 32.303 201.535C32.107 201.731 31.8643 201.829 31.575 201.829ZM34.9332 201.829C34.6532 201.829 34.4129 201.731 34.2122 201.535C34.0162 201.334 33.9182 201.087 33.9182 200.793C33.9182 200.513 34.0162 200.273 34.2122 200.072C34.4129 199.871 34.6532 199.771 34.9332 199.771C35.2225 199.771 35.4652 199.871 35.6612 200.072C35.8619 200.273 35.9622 200.513 35.9622 200.793C35.9622 201.087 35.8619 201.334 35.6612 201.535C35.4652 201.731 35.2225 201.829 34.9332 201.829ZM38.2914 201.829C38.0114 201.829 37.7711 201.731 37.5704 201.535C37.3744 201.334 37.2764 201.087 37.2764 200.793C37.2764 200.513 37.3744 200.273 37.5704 200.072C37.7711 199.871 38.0114 199.771 38.2914 199.771C38.5807 199.771 38.8234 199.871 39.0194 200.072C39.2201 200.273 39.3204 200.513 39.3204 200.793C39.3204 201.087 39.2201 201.334 39.0194 201.535C38.8234 201.731 38.5807 201.829 38.2914 201.829ZM41.6496 201.829C41.3696 201.829 41.1293 201.731 40.9286 201.535C40.7326 201.334 40.6346 201.087 40.6346 200.793C40.6346 200.513 40.7326 200.273 40.9286 200.072C41.1293 199.871 41.3696 199.771 41.6496 199.771C41.9389 199.771 42.1816 199.871 42.3776 200.072C42.5783 200.273 42.6786 200.513 42.6786 200.793C42.6786 201.087 42.5783 201.334 42.3776 201.535C42.1816 201.731 41.9389 201.829 41.6496 201.829ZM48.5711 201.829C48.2911 201.829 48.0508 201.731 47.8501 201.535C47.6541 201.334 47.5561 201.087 47.5561 200.793C47.5561 200.513 47.6541 200.273 47.8501 200.072C48.0508 199.871 48.2911 199.771 48.5711 199.771C48.8604 199.771 49.1031 199.871 49.2991 200.072C49.4998 200.273 49.6001 200.513 49.6001 200.793C49.6001 201.087 49.4998 201.334 49.2991 201.535C49.1031 201.731 48.8604 201.829 48.5711 201.829ZM51.9293 201.829C51.6493 201.829 51.409 201.731 51.2083 201.535C51.0123 201.334 50.9143 201.087 50.9143 200.793C50.9143 200.513 51.0123 200.273 51.2083 200.072C51.409 199.871 51.6493 199.771 51.9293 199.771C52.2186 199.771 52.4613 199.871 52.6573 200.072C52.858 200.273 52.9583 200.513 52.9583 200.793C52.9583 201.087 52.858 201.334 52.6573 201.535C52.4613 201.731 52.2186 201.829 51.9293 201.829ZM55.2875 201.829C55.0075 201.829 54.7672 201.731 54.5665 201.535C54.3705 201.334 54.2725 201.087 54.2725 200.793C54.2725 200.513 54.3705 200.273 54.5665 200.072C54.7672 199.871 55.0075 199.771 55.2875 199.771C55.5768 199.771 55.8195 199.871 56.0155 200.072C56.2162 200.273 56.3165 200.513 56.3165 200.793C56.3165 201.087 56.2162 201.334 56.0155 201.535C55.8195 201.731 55.5768 201.829 55.2875 201.829ZM58.6457 201.829C58.3657 201.829 58.1254 201.731 57.9247 201.535C57.7287 201.334 57.6307 201.087 57.6307 200.793C57.6307 200.513 57.7287 200.273 57.9247 200.072C58.1254 199.871 58.3657 199.771 58.6457 199.771C58.935 199.771 59.1777 199.871 59.3737 200.072C59.5744 200.273 59.6747 200.513 59.6747 200.793C59.6747 201.087 59.5744 201.334 59.3737 201.535C59.1777 201.731 58.935 201.829 58.6457 201.829Z" fill="white"/>
<path d="M168.175 184V177H172.47V177.84H169.015V179.83H171.845V180.67H169.015V183.16H172.47V184H168.175ZM173.292 184L175.122 181.49L173.302 178.99H174.337L175.642 180.77L176.942 178.99H177.977L176.157 181.49L177.987 184H176.952L175.642 182.2L174.327 184H173.292ZM179.894 186.5H179.054V179H179.894V179.855C180.064 179.562 180.29 179.325 180.574 179.145C180.857 178.962 181.194 178.87 181.584 178.87C181.947 178.87 182.287 178.938 182.604 179.075C182.924 179.212 183.204 179.402 183.444 179.645C183.684 179.885 183.872 180.163 184.009 180.48C184.145 180.797 184.214 181.137 184.214 181.5C184.214 181.863 184.145 182.205 184.009 182.525C183.872 182.845 183.684 183.127 183.444 183.37C183.204 183.61 182.924 183.798 182.604 183.935C182.287 184.072 181.947 184.14 181.584 184.14C181.194 184.14 180.857 184.05 180.574 183.87C180.29 183.687 180.064 183.448 179.894 183.155V186.5ZM181.574 179.685C181.25 179.685 180.967 179.767 180.724 179.93C180.48 180.093 180.292 180.312 180.159 180.585C180.029 180.858 179.964 181.163 179.964 181.5C179.964 181.833 180.029 182.138 180.159 182.415C180.292 182.692 180.479 182.912 180.719 183.075C180.962 183.238 181.247 183.32 181.574 183.32C181.897 183.32 182.194 183.24 182.464 183.08C182.734 182.917 182.95 182.698 183.114 182.425C183.277 182.148 183.359 181.84 183.359 181.5C183.359 181.167 183.279 180.863 183.119 180.59C182.959 180.313 182.744 180.093 182.474 179.93C182.204 179.767 181.904 179.685 181.574 179.685ZM185.279 179H186.119V184H185.279V179ZM185.704 178.085C185.574 178.085 185.464 178.042 185.374 177.955C185.284 177.868 185.239 177.76 185.239 177.63C185.239 177.5 185.284 177.392 185.374 177.305C185.464 177.218 185.574 177.175 185.704 177.175C185.834 177.175 185.944 177.218 186.034 177.305C186.124 177.392 186.169 177.5 186.169 177.63C186.169 177.76 186.124 177.868 186.034 177.955C185.944 178.042 185.834 178.085 185.704 178.085ZM190.624 179.83C190.541 179.783 190.451 179.747 190.354 179.72C190.258 179.693 190.153 179.68 190.039 179.68C189.763 179.68 189.516 179.755 189.299 179.905C189.086 180.055 188.918 180.258 188.794 180.515C188.671 180.772 188.609 181.055 188.609 181.365V184H187.764V179H188.604V179.77C188.784 179.49 189.008 179.27 189.274 179.11C189.541 178.947 189.836 178.865 190.159 178.865C190.269 178.865 190.374 178.87 190.474 178.88C190.574 178.89 190.669 178.91 190.759 178.94L190.624 179.83ZM195.061 179H195.951L193.216 186.5H192.326L193.231 184L191.436 179H192.356L193.651 182.845L195.061 179ZM203.776 176.5H204.616V184H203.776V183.15C203.606 183.443 203.378 183.68 203.091 183.86C202.804 184.04 202.468 184.13 202.081 184.13C201.718 184.13 201.378 184.062 201.061 183.925C200.744 183.788 200.464 183.6 200.221 183.36C199.981 183.117 199.793 182.837 199.656 182.52C199.519 182.203 199.451 181.863 199.451 181.5C199.451 181.137 199.519 180.797 199.656 180.48C199.793 180.16 199.981 179.88 200.221 179.64C200.464 179.397 200.744 179.207 201.061 179.07C201.378 178.933 201.718 178.865 202.081 178.865C202.468 178.865 202.804 178.955 203.091 179.135C203.378 179.315 203.606 179.552 203.776 179.845V176.5ZM202.091 183.315C202.421 183.315 202.706 183.235 202.946 183.075C203.189 182.912 203.376 182.692 203.506 182.415C203.639 182.138 203.706 181.833 203.706 181.5C203.706 181.16 203.639 180.853 203.506 180.58C203.373 180.303 203.184 180.085 202.941 179.925C202.701 179.762 202.418 179.68 202.091 179.68C201.761 179.68 201.461 179.762 201.191 179.925C200.924 180.088 200.711 180.308 200.551 180.585C200.391 180.858 200.311 181.163 200.311 181.5C200.311 181.837 200.393 182.143 200.556 182.42C200.719 182.693 200.936 182.912 201.206 183.075C201.476 183.235 201.771 183.315 202.091 183.315ZM210.129 179H210.969V184H210.124L210.094 183.155C209.938 183.445 209.721 183.68 209.444 183.86C209.171 184.04 208.846 184.13 208.469 184.13C208.099 184.13 207.754 184.062 207.434 183.925C207.114 183.785 206.831 183.593 206.584 183.35C206.341 183.103 206.151 182.82 206.014 182.5C205.878 182.18 205.809 181.835 205.809 181.465C205.809 181.108 205.876 180.772 206.009 180.455C206.143 180.138 206.328 179.862 206.564 179.625C206.804 179.385 207.081 179.198 207.394 179.065C207.708 178.928 208.043 178.86 208.399 178.86C208.796 178.86 209.143 178.953 209.439 179.14C209.739 179.323 209.979 179.562 210.159 179.855L210.129 179ZM208.489 183.315C208.823 183.315 209.109 183.232 209.349 183.065C209.589 182.898 209.771 182.675 209.894 182.395C210.021 182.115 210.078 181.805 210.064 181.465C210.051 181.132 209.973 180.83 209.829 180.56C209.686 180.29 209.493 180.077 209.249 179.92C209.006 179.76 208.723 179.68 208.399 179.68C208.069 179.68 207.769 179.763 207.499 179.93C207.229 180.097 207.018 180.32 206.864 180.6C206.714 180.88 206.646 181.192 206.659 181.535C206.676 181.865 206.769 182.165 206.939 182.435C207.109 182.705 207.329 182.92 207.599 183.08C207.873 183.237 208.169 183.315 208.489 183.315ZM214.958 179.84H213.823L213.818 184H212.978L212.983 179.84H212.123V179H212.983L212.978 177.43H213.818L213.823 179H214.958V179.84ZM218.108 184.13C217.648 184.13 217.228 184.012 216.848 183.775C216.471 183.538 216.169 183.222 215.943 182.825C215.719 182.425 215.608 181.983 215.608 181.5C215.608 181.133 215.673 180.792 215.803 180.475C215.933 180.155 216.111 179.875 216.338 179.635C216.568 179.392 216.834 179.202 217.138 179.065C217.441 178.928 217.764 178.86 218.108 178.86C218.484 178.86 218.829 178.937 219.143 179.09C219.459 179.24 219.729 179.45 219.953 179.72C220.179 179.99 220.348 180.303 220.458 180.66C220.571 181.017 220.613 181.398 220.583 181.805H216.503C216.543 182.088 216.636 182.342 216.783 182.565C216.929 182.785 217.116 182.96 217.343 183.09C217.573 183.22 217.828 183.287 218.108 183.29C218.408 183.29 218.679 183.213 218.923 183.06C219.166 182.903 219.363 182.69 219.513 182.42L220.368 182.62C220.168 183.063 219.866 183.427 219.463 183.71C219.059 183.99 218.608 184.13 218.108 184.13ZM216.478 181.145H219.738C219.711 180.865 219.621 180.61 219.468 180.38C219.314 180.147 219.119 179.96 218.883 179.82C218.646 179.68 218.388 179.61 218.108 179.61C217.828 179.61 217.571 179.678 217.338 179.815C217.104 179.952 216.911 180.137 216.758 180.37C216.608 180.6 216.514 180.858 216.478 181.145Z" fill="white"/>
<path d="M169.15 201.829C168.87 201.829 168.63 201.731 168.429 201.535C168.233 201.334 168.135 201.087 168.135 200.793C168.135 200.513 168.233 200.273 168.429 200.072C168.63 199.871 168.87 199.771 169.15 199.771C169.44 199.771 169.682 199.871 169.878 200.072C170.079 200.273 170.179 200.513 170.179 200.793C170.179 201.087 170.079 201.334 169.878 201.535C169.682 201.731 169.44 201.829 169.15 201.829ZM172.508 201.829C172.228 201.829 171.988 201.731 171.787 201.535C171.591 201.334 171.493 201.087 171.493 200.793C171.493 200.513 171.591 200.273 171.787 200.072C171.988 199.871 172.228 199.771 172.508 199.771C172.798 199.771 173.04 199.871 173.236 200.072C173.437 200.273 173.537 200.513 173.537 200.793C173.537 201.087 173.437 201.334 173.236 201.535C173.04 201.731 172.798 201.829 172.508 201.829ZM175.867 201.829C175.587 201.829 175.346 201.731 175.146 201.535C174.95 201.334 174.852 201.087 174.852 200.793C174.852 200.513 174.95 200.273 175.146 200.072C175.346 199.871 175.587 199.771 175.867 199.771C176.156 199.771 176.399 199.871 176.595 200.072C176.795 200.273 176.896 200.513 176.896 200.793C176.896 201.087 176.795 201.334 176.595 201.535C176.399 201.731 176.156 201.829 175.867 201.829ZM179.225 201.829C178.945 201.829 178.704 201.731 178.504 201.535C178.308 201.334 178.21 201.087 178.21 200.793C178.21 200.513 178.308 200.273 178.504 200.072C178.704 199.871 178.945 199.771 179.225 199.771C179.514 199.771 179.757 199.871 179.953 200.072C180.153 200.273 180.254 200.513 180.254 200.793C180.254 201.087 180.153 201.334 179.953 201.535C179.757 201.731 179.514 201.829 179.225 201.829ZM185.859 195.2L183.024 205.784H181.568L184.403 195.2H185.859ZM188.197 201.829C187.917 201.829 187.677 201.731 187.476 201.535C187.28 201.334 187.182 201.087 187.182 200.793C187.182 200.513 187.28 200.273 187.476 200.072C187.677 199.871 187.917 199.771 188.197 199.771C188.486 199.771 188.729 199.871 188.925 200.072C189.126 200.273 189.226 200.513 189.226 200.793C189.226 201.087 189.126 201.334 188.925 201.535C188.729 201.731 188.486 201.829 188.197 201.829ZM191.555 201.829C191.275 201.829 191.035 201.731 190.834 201.535C190.638 201.334 190.54 201.087 190.54 200.793C190.54 200.513 190.638 200.273 190.834 200.072C191.035 199.871 191.275 199.771 191.555 199.771C191.845 199.771 192.087 199.871 192.283 200.072C192.484 200.273 192.584 200.513 192.584 200.793C192.584 201.087 192.484 201.334 192.283 201.535C192.087 201.731 191.845 201.829 191.555 201.829ZM194.913 201.829C194.633 201.829 194.393 201.731 194.192 201.535C193.996 201.334 193.898 201.087 193.898 200.793C193.898 200.513 193.996 200.273 194.192 200.072C194.393 199.871 194.633 199.771 194.913 199.771C195.203 199.771 195.445 199.871 195.641 200.072C195.842 200.273 195.942 200.513 195.942 200.793C195.942 201.087 195.842 201.334 195.641 201.535C195.445 201.731 195.203 201.829 194.913 201.829ZM198.272 201.829C197.992 201.829 197.751 201.731 197.551 201.535C197.355 201.334 197.257 201.087 197.257 200.793C197.257 200.513 197.355 200.273 197.551 200.072C197.751 199.871 197.992 199.771 198.272 199.771C198.561 199.771 198.804 199.871 199 200.072C199.2 200.273 199.301 200.513 199.301 200.793C199.301 201.087 199.2 201.334 199 201.535C198.804 201.731 198.561 201.829 198.272 201.829Z" fill="white"/>
</g>
<defs>
<clipPath id="clip0_1042_25742">
<rect width="380" height="239" rx="24" fill="white"/>
</clipPath>
</defs>
</svg>
